<svg width="96" height="174" viewBox="0 0 96 174" fill="none" xmlns="http://www.w3.org/2000/svg">
<path d="M61.5381 0.115051L61.4711 38.4761L61.4031 76.8371L58.2471 67.9321L58.2411 67.915L54.1631 153.317C58.1731 164.641 60.3211 170.686 60.3451 170.71C60.3761 170.742 62.6621 170.88 65.4231 171.017C73.7891 171.432 84.1571 172.321 92.0221 173.299C93.8431 173.525 95.4101 173.641 95.5051 173.556C95.5991 173.472 95.6501 134.413 95.6191 86.759L95.5611 0.115051H61.5381V0.115051Z" fill="#B1060F"/>
<path d="M0 0V86.732C0 134.435 0.0469963 173.511 0.103996 173.568C0.160996 173.625 3.115 173.346 6.669 172.948C10.222 172.55 15.134 172.055 17.583 171.848C21.339 171.531 32.553 170.81 33.851 170.802C34.229 170.8 34.253 168.852 34.308 134.067L34.366 97.333L37.079 105.01L38.039 107.723L42.116 22.342L40.715 18.382C38.6224 12.4634 36.5281 6.54538 34.432 0.627998L34.207 0H0V0Z" fill="#B1060F"/>
<path d="M0.00109863 0L34.3661 97.377V97.333L37.0791 105.01C52.1831 147.748 60.2971 170.662 60.3451 170.71C60.3761 170.742 62.6621 170.88 65.4231 171.017C73.7891 171.432 84.1571 172.321 92.0221 173.299C93.8341 173.524 95.3921 173.639 95.5021 173.557L61.4021 76.82V76.837L58.2461 67.932C55.1621 59.231 53.1031 53.412 40.7141 18.382C37.3821 8.962 34.5551 0.973998 34.4311 0.627998L34.2061 0H0.00109863Z" fill="#E50914"/>
</svg>
