<svg width="139" height="38" viewBox="0 0 139 38" fill="none" xmlns="http://www.w3.org/2000/svg">
<path d="M92.4832 0V27.68C95.8387 27.8388 99.1853 28.0308 102.523 28.2573V34.126C97.2295 33.7669 91.9311 33.4944 86.6294 33.3086V0H92.4832ZM139 0.00331487L131.378 17.9848L138.998 37.995L138.99 37.9986C136.768 37.677 134.544 37.371 132.318 37.0807L128.038 25.8499L123.718 36.0382C121.671 35.808 119.621 35.5906 117.566 35.3862L124.997 17.8644L118.191 0.00359111H124.524L128.334 9.99903L132.571 0.00331487H139ZM66.5391 33.0178V0.00303863H82.8797V5.9245H72.3928V13.5984H80.3275V19.4671H72.3928V33.0167L66.5391 33.0178ZM44.6811 5.92478V0.00276239H62.7864V5.9245H56.6603V33.1782C54.7064 33.2307 52.7547 33.2921 50.8071 33.3669V5.92478H44.6811ZM24.6695 35.073V0.00386735H40.9286V5.92505H30.5224V13.9459C32.9131 13.9147 36.3123 13.8796 38.4272 13.8846V19.7539C35.7799 19.7207 32.7917 19.7909 30.5224 19.8138V28.6988C33.9886 28.4208 37.4575 28.1796 40.9286 27.975V33.8443C35.5026 34.1628 30.0822 34.5726 24.6695 35.0735V35.073ZM13.1865 21.5063L13.1862 0.00276239H19.04V35.6266C16.9001 35.8503 14.7641 36.0887 12.6321 36.3404L5.85346 16.5257V37.189C3.89851 37.4481 1.94735 37.718 0 38V0.00331487H5.56298L13.1862 21.5063H13.1865ZM107.352 34.4799V0.00331487H113.206V34.9719C111.257 34.7951 109.306 34.6321 107.352 34.4802V34.4799Z" fill="#E50914"/>
</svg>
